<svg width="32" height="31" viewBox="0 0 32 31" fill="none" xmlns="http://www.w3.org/2000/svg">
<path d="M4.49315 7.41629L11.2527 11.1916C12.0234 11.6234 13.0126 11.5025 13.6381 10.9008C13.841 10.7184 14.0021 10.4996 14.1119 10.2577C14.2217 10.0158 14.2778 9.75565 14.2769 9.493V1.92607C14.291 1.59448 14.2087 1.26551 14.0387 0.97388C13.8687 0.682254 13.6173 0.438805 13.311 0.269246C13.0047 0.0996859 12.6549 0.0103094 12.2986 0.0105565C11.9423 0.0108036 11.5927 0.100665 11.2867 0.270649C10.9805 0.440026 10.7291 0.683223 10.559 0.974584C10.3889 1.26594 10.3064 1.59466 10.3201 1.92607V6.23207L6.48082 4.08818C6.25456 3.96268 6.00333 3.88122 5.7423 3.84873C5.48128 3.81624 5.21589 3.83339 4.96219 3.89914C4.70848 3.9649 4.47173 4.07789 4.26626 4.23129C4.06078 4.38469 3.89084 4.5753 3.76671 4.79162C3.2175 5.70713 3.53693 6.86257 4.49315 7.41629ZM20.7438 11.182L27.5033 7.40669C28.4616 6.85297 28.781 5.69658 28.2308 4.78106C28.1066 4.56496 27.9366 4.37455 27.7312 4.22134C27.5257 4.06812 27.2891 3.95528 27.0355 3.88962C26.7819 3.82397 26.5167 3.80686 26.2558 3.83934C25.9949 3.87182 25.7439 3.95321 25.5177 4.07859L21.7289 6.19368V1.91551C21.743 1.58393 21.6607 1.25495 21.4907 0.963324C21.3206 0.671698 21.0692 0.428249 20.7629 0.25869C20.4566 0.0891299 20.1069 -0.000246584 19.7506 5.10963e-07C19.3942 0.000247606 19.0446 0.0901092 18.7386 0.260093C18.4325 0.42947 18.1811 0.672667 18.0109 0.964027C17.8408 1.25539 17.7583 1.58411 17.7721 1.91551V9.33369C17.7309 9.73099 17.8205 10.1302 18.0297 10.4795C18.1538 10.6958 18.3238 10.8865 18.5292 11.0399C18.7347 11.1933 18.9715 11.3062 19.2252 11.372C19.4789 11.4378 19.7443 11.4549 20.0053 11.4224C20.2663 11.3899 20.5175 11.3075 20.7438 11.182ZM14.7262 15.4851C14.7327 15.3639 14.7824 15.2481 14.8674 15.156L15.6577 14.3902C15.752 14.3102 15.8725 14.2622 15.9998 14.2539H16.0307C16.158 14.2608 16.2786 14.309 16.3718 14.3902L17.1621 15.156C17.2471 15.2481 17.2967 15.3639 17.3032 15.4851V15.5139C17.2972 15.6359 17.2475 15.7524 17.1621 15.845L16.3718 16.6089C16.2781 16.6888 16.1584 16.7372 16.0317 16.7461H16.0008C15.873 16.7391 15.752 16.6906 15.6587 16.6089L14.8684 15.845C14.7829 15.7519 14.7344 15.6358 14.7272 15.5139L14.7262 15.4851ZM12.3336 15.1704V15.8306C12.3424 15.9964 12.4102 16.1547 12.5263 16.2807L15.2084 18.8737C15.3352 18.9851 15.5001 19.0513 15.6742 19.0608H16.3563C16.5303 19.0513 16.6952 18.9851 16.822 18.8737L19.5042 16.2807C19.6206 16.1559 19.6897 15.9966 19.6969 15.8296V15.1694C19.6882 15.0033 19.6205 14.8446 19.5042 14.7184L16.822 12.1273C16.6952 12.0159 16.5303 11.9496 16.3563 11.9401H15.6742C15.5001 11.9496 15.3352 12.0159 15.2084 12.1273L12.5263 14.7203C12.4098 14.845 12.3408 15.0034 12.3336 15.1704ZM0.995933 13.3892L4.82392 15.5273L0.995933 17.6645C0.03971 18.2182 -0.281779 19.3746 0.268461 20.2902C0.392675 20.5064 0.56268 20.6969 0.7682 20.8502C0.973719 21.0035 1.21048 21.1164 1.46418 21.1821C1.71788 21.2477 1.98324 21.2648 2.24422 21.2322C2.5052 21.1997 2.75637 21.1182 2.98257 20.9926L9.74208 17.2173C10.0467 17.036 10.2974 16.7861 10.4711 16.4907C10.6448 16.1954 10.7358 15.8641 10.7358 15.5273C10.7358 15.1906 10.6448 14.8593 10.4711 14.564C10.2974 14.2686 10.0467 14.0187 9.74208 13.8374L2.98257 10.0611C2.75631 9.93562 2.50508 9.85416 2.24405 9.82167C1.98303 9.78917 1.71764 9.80632 1.46394 9.87208C1.21023 9.93783 0.973483 10.0508 0.768004 10.2042C0.562525 10.3576 0.392585 10.5482 0.268461 10.7646C-0.280749 11.6801 0.03971 12.8355 0.995933 13.3892ZM21.2621 15.5254C21.2564 15.8622 21.345 16.1945 21.5192 16.4897C21.6934 16.7848 21.9471 17.0326 22.2554 17.2087L29.018 20.984C29.2442 21.1094 29.4953 21.1908 29.7561 21.2232C30.017 21.2557 30.2822 21.2386 30.5358 21.1729C30.7894 21.1073 31.026 20.9945 31.2315 20.8412C31.4369 20.688 31.6069 20.4976 31.7311 20.2815C32.2813 19.366 31.9609 18.2086 31.0036 17.6559L27.1756 15.5187L31.0036 13.3806C31.9619 12.8278 32.2813 11.6724 31.7311 10.7559C31.607 10.5397 31.4371 10.3492 31.2317 10.1959C31.0263 10.0426 30.7896 9.92967 30.536 9.86392C30.2825 9.79817 30.0172 9.78099 29.7563 9.81339C29.4954 9.8458 29.2442 9.92714 29.018 10.0525L22.2554 13.8287C21.9448 14.006 21.6896 14.2561 21.5153 14.554C21.341 14.8519 21.2537 15.1863 21.2621 15.5254ZM12.6107 19.627C12.144 19.5426 11.6607 19.6232 11.2537 19.8516L4.49418 23.6279C3.53796 24.1816 3.21647 25.3361 3.76671 26.2525C3.89093 26.4688 4.06093 26.6593 4.26645 26.8126C4.47197 26.9659 4.70873 27.0788 4.96243 27.1444C5.21613 27.2101 5.48149 27.2272 5.74247 27.1946C6.00345 27.1621 6.25463 27.0805 6.48082 26.955L10.3201 24.8111V29.0845C10.306 29.4161 10.3883 29.745 10.5584 30.0367C10.7284 30.3283 10.9798 30.5718 11.2861 30.7413C11.5924 30.9109 11.9421 31.0002 12.2985 31C12.6548 30.9998 13.0044 30.9099 13.3104 30.7399C13.6166 30.5705 13.868 30.3273 14.0381 30.036C14.2082 29.7446 14.2907 29.4159 14.2769 29.0845V21.508C14.2845 21.0604 14.1213 20.6248 13.8164 20.2788C13.5115 19.9328 13.0846 19.6988 12.6118 19.6184M27.5064 23.6202L20.7469 19.8449C20.5207 19.7193 20.2695 19.6378 20.0085 19.6053C19.7476 19.5727 19.4822 19.5898 19.2285 19.6554C18.9748 19.7211 18.738 19.834 18.5325 19.9873C18.327 20.1406 18.157 20.3311 18.0328 20.5473C17.8248 20.8967 17.7354 21.2965 17.7762 21.6941V29.0759C17.7621 29.4074 17.8444 29.7364 18.0144 30.028C18.1844 30.3197 18.4359 30.5631 18.7422 30.7327C19.0484 30.9022 19.3982 30.9916 19.7545 30.9914C20.1108 30.9911 20.4605 30.9013 20.7665 30.7313C21.0726 30.5619 21.324 30.3187 21.4941 30.0273C21.6642 29.736 21.7468 29.4073 21.733 29.0759V24.8322L25.5208 26.9473C25.747 27.0728 25.9983 27.1543 26.2593 27.1868C26.5203 27.2193 26.7857 27.2021 27.0394 27.1364C27.2931 27.0706 27.5299 26.9576 27.7354 26.8042C27.9408 26.6508 28.1108 26.4602 28.2349 26.2439C28.7841 25.3284 28.4636 24.1729 27.5074 23.6192" fill="black"/>
</svg>
