<svg width="21" height="18" viewBox="0 0 21 18" fill="none" xmlns="http://www.w3.org/2000/svg">
<g clip-path="url(#clip0_2024_405)">
<mask id="mask0_2024_405" style="mask-type:luminance" maskUnits="userSpaceOnUse" x="0" y="0" width="21" height="18">
<path d="M1.20618 17.019V1.25818H19.8325V17.019H1.20618Z" fill="white" stroke="white"/>
</mask>
<g mask="url(#mask0_2024_405)">
<path d="M9.88153 8.18004L1.99542 5.25213C1.92757 5.22704 1.86987 5.18545 1.82952 5.13255C1.78917 5.07964 1.76794 5.01776 1.76849 4.95462C1.7696 4.89622 1.79062 4.83936 1.82896 4.791C1.8673 4.74263 1.9213 4.70484 1.98438 4.68226L1.99664 4.67702L9.88153 1.74492C10.0827 1.66993 10.2999 1.63123 10.5194 1.63123C10.7389 1.63123 10.956 1.66993 11.1572 1.74492H11.1597L19.0421 4.66445L19.0544 4.66864C19.1182 4.69174 19.1726 4.73039 19.2108 4.77978C19.249 4.82916 19.2692 4.88707 19.269 4.94624V4.95462C19.2696 5.01789 19.2487 5.07994 19.2088 5.13328C19.169 5.18663 19.112 5.229 19.0446 5.25527L11.1585 8.18004C10.9573 8.25503 10.7401 8.29373 10.5206 8.29373C10.3011 8.29373 10.0827 8.25503 9.88153 8.18004ZM1.65441 5.92571L9.53806 8.85257L0.911063 4.94834C0.90883 5.1556 0.978141 5.35883 1.11034 5.53265C1.24254 5.70647 1.43178 5.84318 1.65441 5.92571Z" fill="#BD03F7" fill-opacity="0.3"/>
<path d="M1.99542 5.25213L9.88153 8.18004C10.0827 8.25503 10.3011 8.29373 10.5206 8.29373C10.7401 8.29373 10.9573 8.25503 11.1585 8.18004L19.0446 5.25527C19.112 5.229 19.169 5.18663 19.2088 5.13328C19.2487 5.07994 19.2696 5.01789 19.269 4.95462V4.94624C19.2692 4.88707 19.249 4.82916 19.2108 4.77978C19.1726 4.73039 19.1182 4.69173 19.0544 4.66864L19.0421 4.66445L11.1597 1.74492H11.1572C10.956 1.66993 10.7389 1.63123 10.5194 1.63123C10.2999 1.63123 10.0827 1.66993 9.88153 1.74492L1.99664 4.67702L1.98438 4.68226C1.9213 4.70484 1.8673 4.74263 1.82896 4.791C1.79062 4.83936 1.7696 4.89622 1.76849 4.95462C1.76794 5.01776 1.78917 5.07964 1.82952 5.13255C1.86987 5.18545 1.92757 5.22704 1.99542 5.25213ZM1.99542 5.25213L1.65318 5.92466M1.65441 5.92571L9.53806 8.85257L0.911063 4.94834C0.90883 5.1556 0.978141 5.35883 1.11034 5.53265C1.24254 5.70647 1.43178 5.84318 1.65441 5.92571Z" stroke="#673DE6" stroke-width="1.4"/>
<path d="M19.2102 8.66443L19.2165 8.66667C19.3542 8.71575 19.4601 8.79413 19.529 8.88152C19.5957 8.96606 19.6257 9.05567 19.6278 9.13952C19.626 9.22739 19.595 9.32088 19.5264 9.40882C19.4555 9.49964 19.3466 9.58097 19.2053 9.63227L19.2019 9.63351L11.3183 12.5593L11.3176 12.5596C11.0652 12.6536 10.7904 12.703 10.5109 12.703C10.2315 12.703 9.95663 12.6536 9.70424 12.5596L9.7036 12.5593L1.82118 9.63352L1.82119 9.63348L1.81493 9.63125C1.67442 9.58121 1.56643 9.50095 1.4966 9.41146C1.42776 9.32325 1.39795 9.22957 1.39795 9.14219C1.39795 9.0548 1.42776 8.96112 1.4966 8.87292C1.56643 8.78343 1.67442 8.70316 1.81493 8.65312L1.81495 8.65317L1.8216 8.6507L2.83481 8.27358L2.84737 8.2689L2.85966 8.26356C2.90291 8.24476 2.95305 8.23258 3.00664 8.22968C3.06022 8.22677 3.11301 8.23337 3.161 8.24804C3.20901 8.26272 3.24835 8.28425 3.27805 8.30792C3.30761 8.33149 3.3257 8.35553 3.33599 8.37561C3.34607 8.39528 3.34951 8.41254 3.3496 8.42712C3.34969 8.44169 3.34648 8.45878 3.33679 8.47825C3.32689 8.49814 3.30934 8.52206 3.28034 8.54567C3.25121 8.56941 3.21238 8.59119 3.16473 8.60625L3.1561 8.60898L3.14757 8.61202L2.99178 8.66754L1.70106 9.12754L2.98472 9.60692L10.0171 12.2331L10.0172 12.2332C10.1777 12.2931 10.3485 12.3232 10.5195 12.3232C10.6905 12.3232 10.8613 12.2931 11.0218 12.2332L11.022 12.2331L18.0543 9.60692L19.5452 9.05014L18.0038 8.65424L17.8551 8.61604C17.8114 8.6013 17.7754 8.58089 17.7479 8.55869C17.7186 8.53502 17.7008 8.51098 17.6908 8.49098L17.2439 8.71531L17.6908 8.49097C17.6809 8.47139 17.6777 8.4542 17.6777 8.43959C17.6778 8.42497 17.6812 8.40769 17.6913 8.38797L17.2462 8.16025L17.6913 8.38797C17.7016 8.36784 17.7197 8.34373 17.7494 8.32009L17.4385 7.92964L17.7494 8.32009C17.7792 8.29634 17.8187 8.27476 17.867 8.26011C17.9152 8.24546 17.9682 8.23894 18.0219 8.242C18.0756 8.24506 18.1258 8.25743 18.169 8.2764L18.1823 8.28222L18.1958 8.28726L19.2103 8.66438L19.2102 8.66443Z" fill="#673DE6" stroke="#673DE6"/>
<path d="M17.7145 12.6528C17.7054 12.634 17.7025 12.6175 17.7027 12.6033C17.7029 12.589 17.7063 12.5722 17.7161 12.5529L17.271 12.3252L17.7161 12.5529C17.7262 12.5333 17.7437 12.5099 17.7722 12.4868C17.8009 12.4635 17.839 12.4422 17.8856 12.4274C17.9321 12.4125 17.9836 12.4052 18.0362 12.4072C18.0889 12.4091 18.1386 12.42 18.1821 12.4376L18.1889 12.4404L18.1957 12.4429L19.2101 12.82L19.2106 12.8202L17.7145 12.6528ZM17.7145 12.6528C17.7237 12.672 17.7401 12.6952 17.7675 12.7184C17.795 12.7417 17.832 12.7635 17.8778 12.7791L17.9036 12.788L17.9283 12.7995L18.0915 12.876L19.1754 13.3841L18.0521 13.7979L11.0217 16.3878M17.7145 12.6528L11.0217 16.3878M11.0217 16.3878C11.0213 16.388 11.0209 16.3881 11.0205 16.3882C10.8604 16.4478 10.69 16.4778 10.5194 16.4778C10.3488 16.4778 10.1784 16.4478 10.0182 16.3882C10.0179 16.3881 10.0175 16.388 10.0171 16.3878L2.98667 13.7979L1.77062 13.35L2.97243 12.8651L3.12821 12.8022L3.14615 12.795L3.1646 12.7891C3.21225 12.7741 3.25108 12.7523 3.28021 12.7286C3.30921 12.7049 3.32676 12.681 3.33666 12.6611C3.34635 12.6417 3.34956 12.6246 3.34947 12.61C3.34938 12.5954 3.34594 12.5782 3.33586 12.5585C3.32556 12.5384 3.30748 12.5144 3.27792 12.4908C3.24822 12.4671 3.20888 12.4456 3.16087 12.4309C3.11288 12.4163 3.06009 12.4097 3.00651 12.4126C2.95292 12.4155 2.90278 12.4277 2.85953 12.4465L2.84724 12.4518L2.83467 12.4565L1.82322 12.8329C1.72051 12.8722 1.63476 12.9277 1.56925 12.9915C1.50368 13.0553 1.46071 13.1249 1.43706 13.1931C1.41359 13.2608 1.40816 13.3296 1.41957 13.3967L11.0217 16.3878Z" fill="#673DE6" stroke="#673DE6"/>
</g>
</g>
<defs>
<clipPath id="clip0_2024_405">
<rect x="0.706177" y="0.758179" width="19.6263" height="16.7609" rx="8.38043" fill="white"/>
</clipPath>
</defs>
</svg>
